<svg width="1200" height="800" viewBox="0 0 1200 800" fill="none" xmlns="http://www.w3.org/2000/svg">
  <rect width="1200" height="800" fill="#EAF4EC"/>
  <rect y="490" width="1200" height="310" fill="#CFE7D4"/>
  <rect x="40" y="300" width="310" height="170" rx="18" fill="#F8FBF8"/>
  <rect x="365" y="220" width="210" height="250" rx="18" fill="#F7FAF7"/>
  <rect x="605" y="260" width="255" height="210" rx="18" fill="#F8FBF8"/>
  <rect x="890" y="290" width="220" height="180" rx="18" fill="#F7FAF7"/>
  <rect x="73" y="335" width="240" height="14" rx="7" fill="#0D7A5B" fill-opacity="0.17"/>
  <rect x="73" y="365" width="240" height="14" rx="7" fill="#0D7A5B" fill-opacity="0.12"/>
  <rect x="73" y="395" width="110" height="14" rx="7" fill="#0D7A5B" fill-opacity="0.12"/>
  <path d="M0 218C117 154 202 164 330 214C482 273 602 274 770 212C924 155 1044 171 1200 222V0H0V218Z" fill="#D9EBFF"/>
  <path d="M0 243C104 205 202 210 320 251C477 307 628 315 786 262C939 210 1076 205 1200 250V181C1044 130 924 136 770 193C602 255 482 254 330 195C202 145 117 135 0 199V243Z" fill="#BDD7F3"/>
  <path d="M0 468H1200" stroke="#8EBC95" stroke-width="6"/>
  <circle cx="725" cy="562" r="94" fill="#F1F7F2"/>
  <circle cx="725" cy="562" r="52" fill="#D2E9D8"/>
  <path d="M725 498L744 562H706L725 498Z" fill="#8AD3EF"/>
  <path d="M690 561C690 521 701 510 725 498C749 510 760 521 760 561C760 601 749 614 725 626C701 614 690 601 690 561Z" fill="#9EE5FF"/>
</svg>
